Coordinates
version=1
nRows=9
nColumns=36
inDegrees=yes

Units are S.I. units (second, meters, Newtons, ...)
If the header above contains a line with 'inDegrees', this indicates whether rotational values are in degrees (yes) or radians (no).

endheader
time	pelvis_tilt	pelvis_list	pelvis_rotation	pelvis_tx	pelvis_ty	pelvis_tz	hip_flexion_r	hip_adduction_r	hip_rotation_r	knee_angle_r	knee_angle_r_beta	ankle_angle_r	subtalar_angle_r	mtp_angle_r	hip_flexion_l	hip_adduction_l	hip_rotation_l	knee_angle_l	knee_angle_l_beta	ankle_angle_l	subtalar_angle_l	mtp_angle_l	lumbar_extension	lumbar_bending	lumbar_rotation	arm_flex_r	arm_add_r	arm_rot_r	elbow_flex_r	pro_sup_r	arm_flex_l	arm_add_l	arm_rot_l	elbow_flex_l	pro_sup_l
      2.68333330	    -48.24239142	      2.47776224	     -8.04068125	      0.96505482	      0.68125002	     -0.17031332	     15.72834790	     -8.30290141	     28.14419069	     31.91791262	      0.55707267	    -29.07068958	    -16.09977415	     -7.49999982	     96.31744543	      3.53606586	     -2.20879603	     77.23486847	      1.34800275	     30.33823870	    -23.43011720	     -7.49999982	     -5.93607769	    -21.76216688	     18.24981437	     97.31892071	    -24.28743474	     36.10173222	     93.43492934	     93.89153701	     99.82236056	    -11.92453629	     47.45613950	     93.56757457	     83.79314898
      2.70000000	    -48.39969703	      3.14300645	     -7.80400131	      0.96368139	      0.67370500	     -0.17040891	     14.95567786	     -8.49168248	     30.46646162	     30.91776736	      0.53961684	    -32.09622802	    -18.98804275	     -7.49999983	     97.04262210	      3.75090989	     -2.79219429	     77.93955971	      1.36030193	     31.06012365	    -23.15680580	     -7.49999983	     -5.88795024	    -22.73340071	     17.26775143	     97.45682824	    -23.81205689	     35.99406555	     93.36229522	     92.50478385	    102.11189931	    -12.75069431	     49.20340256	     92.60124905	     82.77227296
      2.71666670	    -48.76900060	      4.34168838	     -8.08383452	      0.96460459	      0.67563951	     -0.17048145	     14.75746587	     -9.20954363	     33.18802521	     29.90949281	      0.52201913	    -38.50016258	    -22.20943338	     -7.49999984	     97.18617307	      3.60115562	     -3.80108577	     77.68347213	      1.35583236	     30.41867358	    -24.16131203	     -7.49999984	     -5.45711528	    -24.37591906	     16.98490046	     97.06716373	    -23.60344336	     35.09179640	     94.21319052	     95.24436367	    103.46488227	    -13.53707491	     50.37407969	     92.67749907	     83.00335768
      2.73333330	    -48.96122086	      5.68495163	     -7.32500376	      0.96274118	      0.67071464	     -0.17003735	     15.12472046	     -9.30246780	     36.29461811	     32.05162271	      0.55940635	    -42.49845474	    -23.29969476	     -7.49999984	     97.74796842	      4.22033908	     -5.31221038	     77.75731037	      1.35712108	     30.46696986	    -24.26132798	     -7.49999984	     -5.44643860	    -25.95063170	     16.31684999	     97.35340482	    -23.93912528	     35.23319994	     94.61242328	     95.26806858	    103.07887409	    -13.68965616	     49.78397039	     92.92097330	     82.99479822
      2.75000000	    -49.03364690	      5.84382165	     -7.01999144	      0.96250024	      0.66584709	     -0.17010303	     15.17968249	     -9.35062783	     36.37349676	     32.50164284	      0.56726068	    -44.71276554	    -24.28243398	     -7.49999985	     98.08382490	      4.51290618	     -5.51061185	     78.26954255	      1.36606122	     31.27661219	    -24.15687611	     -7.49999985	     -5.22093798	    -26.14392418	     16.24186999	     97.32341948	    -24.53430478	     35.30597675	     94.92549843	     93.33271495	    102.22872847	    -13.52212013	     49.22672449	     93.14563080	     81.75497173
      2.76666670	    -49.14717742	      4.46140570	     -6.96293302	      0.96209757	      0.66839348	     -0.17014282	     16.01329613	     -9.38748354	     29.91075335	     31.16058454	      0.54385480	    -44.74905625	    -21.44826882	     -7.49999986	     98.56838095	      4.41759133	     -4.24863307	     79.05732155	      1.37981056	     31.98320029	    -23.43729656	     -7.49999986	     -5.34772849	    -24.36432265	     16.67217549	     97.67565738	    -25.05561127	     36.15396067	     95.24252539	     88.83492475	    100.66035365	    -13.21418447	     48.40410019	     94.15849323	     78.65002258
      2.78333330	    -48.68566563	      2.10461394	     -7.19473329	      0.96236243	      0.67047672	     -0.16959199	     16.54102389	     -9.13493864	     20.21543350	     29.83861206	      0.52078202	    -43.40967597	    -19.53969238	     -7.49999986	     98.23315348	      3.98935331	     -2.19339143	     79.34851216	      1.38489279	     32.11197287	    -22.90134510	     -7.49999986	     -6.10775257	    -21.67736411	     17.47547681	     97.73421138	    -25.62413838	     36.15565558	     95.07906844	     89.36554379	     99.20682231	    -12.09636694	     47.79976052	     94.49274870	     78.97220484
      2.80000000	    -48.22689151	      1.16869575	     -6.53356641	      0.96394416	      0.66738360	     -0.17032432	     16.08658959	     -9.91794944	     15.00833705	     29.80261398	      0.52015374	    -37.17794918	     -9.64048626	     -7.49999986	     98.28471003	      4.19362685	     -1.79107364	     80.02665291	      1.39672858	     32.56877629	    -21.79221997	     -7.49999986	     -6.67286816	    -20.18838906	     17.94128956	     98.33024364	    -26.49359241	     37.27298181	     95.35395252	     90.46228973	     96.72560005	    -10.63381815	     45.44171491	     94.65980050	     79.77192024
      2.81666670	    -48.20634623	      0.19086174	     -6.23175843	      0.96360580	      0.66598640	     -0.17030920	     16.66697771	     -9.71243758	     12.81437186	     30.93821400	      0.53997370	    -36.69761624	     -5.38512755	     -7.49999986	     98.21968910	      4.33136689	     -0.95271308	     80.42109553	      1.40361291	     33.83018152	    -20.72860134	     -7.49999986	     -6.35152937	    -18.94272652	     18.98748547	     98.31102162	    -28.04661418	     37.36275337	     95.82380820	     93.88707421	     94.81864248	     -8.82536937	     44.27427574	     94.54947305	     85.27685985
